<?xml version="1.0" encoding="UTF-8"?>
<!-- Generator: Adobe Illustrator 19.2.1, SVG Export Plug-In . SVG Version: 6.00 Build 0)  -->
<svg version="1.1" id="Layer_1" xmlns="http://www.w3.org/2000/svg" xmlns:xlink="http://www.w3.org/1999/xlink" x="0px" y="0px" viewBox="0 0 200 101.5" style="enable-background:new 0 0 200 101.5;" xml:space="preserve">
<style type="text/css">
	.st0{fill:none;stroke:#FFFFFF;stroke-width:4;stroke-miterlimit:10;}
	.st1{opacity:0.75;fill:#26A9E0;}
	.st2{fill:#FFFFFF;}
</style>
<circle class="st0" cx="84.9" cy="68.5" r="29"/>
<circle class="st1" cx="84.9" cy="68.5" r="8.9"/>
<circle class="st2" cx="55.9" cy="69.6" r="6.8"/>
<circle class="st2" cx="99" cy="94.7" r="6.8"/>
<circle class="st2" cx="99" cy="42.3" r="6.8"/>
<g>
	<path class="st2" d="M34.1,1c2.3,0,4.2,0.8,5.8,2.4c1.6,1.6,2.4,3.6,2.4,5.8c0,2.3-0.8,4.2-2.4,5.7c-1.6,1.5-3.5,2.3-5.8,2.3   c-2.3,0-4.2-0.8-5.8-2.3c-1.6-1.5-2.4-3.4-2.4-5.7c0-2.3,0.8-4.2,2.4-5.8C29.9,1.8,31.8,1,34.1,1z M40,98.8H28.2V37.4H40V98.8z"/>
</g>
<g>
	<path class="st2" d="M139.3,45.6h0.3c1.8-3.3,4.4-5.8,7.8-7.5c3.4-1.7,6.9-2.6,10.7-2.6c4.3,0,7.8,0.7,10.7,2   c2.8,1.4,5.1,3.2,6.7,5.6c1.6,2.4,2.8,5.2,3.4,8.5c0.7,3.2,1,6.7,1,10.5v36.6H168V63.6c0-2.6-0.1-5-0.4-7.2c-0.3-2.1-0.9-4-1.8-5.6   c-1-1.6-2.3-2.8-4.1-3.6c-1.8-0.8-4.2-1.2-7.2-1.2c-3.9,0-6.8,0.8-8.9,2.3c-2.1,1.5-3.5,3.5-4.5,5.8c-0.9,2.4-1.5,5-1.6,7.9   c-0.2,2.9-0.3,5.7-0.3,8.5v28.2h-11.8V37.4h11.8V45.6z"/>
</g>
<g>
</g>
<g>
</g>
<g>
</g>
<g>
</g>
<g>
</g>
<g>
</g>
<g>
</g>
<g>
</g>
<g>
</g>
<g>
</g>
<g>
</g>
<g>
</g>
<g>
</g>
<g>
</g>
<g>
</g>
</svg>